HIERARCHY
ROOT Hips
{
	OFFSET 0.000000 0.000000 0.000000 
	CHANNELS 6 Xposition Yposition Zposition Yrotation Zrotation Xrotation 
	JOINT Lumbar
	{
		OFFSET 0.000000 0.000000 0.000000 
		CHANNELS 3 Zrotation Xrotation Yrotation
		JOINT Neck
		{
			OFFSET 0.000000 0.445665 0.000000 
			CHANNELS 3 Zrotation Xrotation Yrotation
			End Site
			{
				OFFSET 0.000000 0.227535 0.000000 
			}
		}
		JOINT RightShoulder
		{
			OFFSET 0.019635 0.377685 0.194865 
			CHANNELS 3 Zrotation Xrotation Yrotation
			JOINT RightElbow
			{
				OFFSET 0.000000 -0.243375 0.000000 
				CHANNELS 2 Zrotation Yrotation
				JOINT RightWrist
				{
					OFFSET 0.000000 -0.264825 0.000000 
					CHANNELS 2 Zrotation Xrotation
					End Site
					{
						OFFSET 0.006600 -0.176220 0.000990 
					}
				}
			}
		}
		JOINT LeftShoulder
		{
			OFFSET 0.019635 0.377685 -0.194865 
			CHANNELS 3 Zrotation Xrotation Yrotation
			JOINT LeftElbow
			{
				OFFSET 0.000000 -0.243375 0.000000 
				CHANNELS 2 Zrotation Yrotation
				JOINT LeftWrist
				{
					OFFSET 0.000000 -0.264825 0.000000 
					CHANNELS 2 Zrotation Xrotation
					End Site
					{
						OFFSET 0.006600 -0.176220 -0.000990 
					}
				}
			}
		}
	}
	JOINT RightHip
	{
		OFFSET 0.052140 -0.069960 0.075570 
		CHANNELS 3 Zrotation Xrotation Yrotation
		JOINT RightKnee
		{
			OFFSET 0.000000 -0.402270 0.000000 
			CHANNELS 1 Zrotation
			JOINT RightAnkle
			{
				OFFSET 0.000000 -0.404085 0.000000 
				CHANNELS 3 Zrotation Xrotation Yrotation
				End Site
				{
					OFFSET 0.204105 -0.089430 0.008415 
				}
			}
		}
	}
	JOINT LeftHip
	{
		OFFSET 0.052140 -0.069960 -0.075570 
		CHANNELS 3 Zrotation Xrotation Yrotation
		JOINT LeftKnee
		{
			OFFSET 0.000000 -0.402270 0.000000 
			CHANNELS 1 Zrotation
			JOINT LeftAnkle
			{
				OFFSET 0.000000 -0.404085 0.000000 
				CHANNELS 3 Zrotation Xrotation Yrotation
				End Site
				{
					OFFSET 0.204105 -0.089430 -0.008415 
				}
			}
		}
	}
}
MOTION
Frames: 11
Frame Time: 0.02
1.50169 0.28566 -0.4943 40.67261 -62.36681 -13.38234 -13.7116 8.098 8.97274 -28.53496 -0.00035 -0.83079 104.44531 7.59944 61.52289 5.34938 83.01262 -4.07222 2.09243 102.02533 9.32971 -29.00355 18.42838 -81.77895 -10.5317 6.30122 87.03062 -0.6064 -9.97115 -37.71082 -6.70528 -4.63148 -3.09838 88.4838 6.9623 1.31458 -31.27657 -7.10467 2.49184 1.97331
1.50176 0.28574 -0.49421 40.67523 -62.44111 -13.38505 -13.59987 8.08924 8.91505 -28.36021 -0.22616 -0.83079 105.04922 6.72913 35.17308 5.31323 83.55539 -3.20787 1.91604 102.16084 9.14387 -29.09778 18.50047 -81.78207 -10.53619 6.20901 87.09299 -0.57046 -9.8722 -37.65334 -6.71974 -4.64166 -3.10551 88.56598 6.95996 1.30986 -31.27022 -7.11446 2.50821 1.97761
1.50184 0.28585 -0.49413 40.69039 -62.52485 -13.40889 -13.48057 8.0752 8.8587 -28.19482 -0.48139 -0.83079 105.62464 5.80508 1.69155 5.3356 84.25234 -1.88548 1.51034 102.31728 8.95197 -29.23622 18.60716 -81.78911 -10.50813 6.1013 87.1558 -0.52056 -9.75403 -37.58742 -6.7366 -4.65503 -3.11479 88.6506 6.98207 1.36917 -31.24926 -7.12641 2.51931 1.97596
1.50191 0.28594 -0.49405 40.706 -62.59735 -13.41445 -13.37023 8.06213 8.79282 -28.04593 -0.74347 -0.83079 106.19881 4.88631 -27.53999 5.32904 84.80866 -0.78346 1.19186 102.45678 8.7781 -29.3616 18.706 -81.79098 -10.49299 6.00012 87.21176 -0.47639 -9.63278 -37.53289 -6.75125 -4.66766 -3.12335 88.72384 6.99297 1.40995 -31.23201 -7.13727 2.53042 1.97595
1.50198 0.28605 -0.49396 40.69555 -62.69874 -13.45694 -13.23671 8.05414 8.76442 -27.81303 -0.92372 -0.83079 106.8362 4.03833 -61.02193 5.32818 85.66506 0.37 0.95106 102.6291 8.53873 -29.46145 18.77494 -81.80699 -10.48425 5.90142 87.29553 -0.43386 -9.55882 -37.44694 -6.77057 -4.67749 -3.1309 88.84031 7.00473 1.40753 -31.22699 -7.14864 2.55121 1.98027
1.50207 0.28614 -0.49389 40.74144 -62.74284 -13.42882 -13.14899 8.03484 8.65907 -27.75212 -1.27798 -0.83079 107.33436 3.03633 -87.37117 5.33093 85.93217 1.52196 0.49323 102.73742 8.43423 -29.6222 18.91199 -81.79494 -10.45501 5.7941 87.32187 -0.38543 -9.38618 -37.42316 -6.78075 -4.69361 -3.1409 88.86826 7.02 1.50631 -31.19342 -7.15943 2.5512 1.9745
1.5022 0.2862 -0.49385 40.95147 -62.62046 -13.18313 -13.19737 7.98344 8.33198 -28.21072 -2.1313 -0.83079 107.44854 1.59424 -91.98579 5.32941 84.54289 2.59403 -0.52618 102.66409 8.71005 -29.95557 19.24205 -81.69923 -10.37737 5.66271 87.18585 -0.31811 -8.90329 -37.5865 -6.76519 -4.72928 -3.1589 88.63978 7.04334 1.91195 -31.08033 -7.16833 2.48924 1.93903
1.50235 0.28624 -0.49382 41.21561 -62.44107 -12.8686 -13.29063 7.92124 7.92912 -28.83309 -3.15378 -0.83079 107.4239 0.00608 -89.22637 5.33008 82.55942 3.64047 -1.7533 102.52514 9.12073 -30.34585 19.63652 -81.57596 -10.2803 5.52388 86.99258 -0.24641 -8.32913 -37.81022 -6.74033 -4.77064 -3.17898 88.32399 7.06865 2.40982 -30.93974 -7.17654 2.40759 1.8942
1.50249 0.28629 -0.49379 41.44774 -62.29185 -12.59677 -13.35842 7.8657 7.56656 -29.35032 -4.08178 -0.83079 107.46699 -1.4969 -90.03581 5.33029 80.83432 4.678 -2.87491 102.41622 9.46586 -30.69918 19.99255 -81.46886 -10.19237 5.39094 86.82809 -0.18087 -7.82483 -37.99773 -6.71966 -4.80749 -3.19696 88.05567 7.09007 2.83719 -30.81452 -7.18488 2.33878 1.85582
1.50263 0.28633 -0.49375 41.71227 -62.12548 -12.27764 -13.44774 7.80309 7.17875 -29.99903 -5.08512 -0.83079 107.49104 -3.08464 -90.18384 5.33018 79.13889 5.82671 -4.05313 102.30817 9.82924 -31.09932 20.38905 -81.34704 -10.10249 5.24669 86.6525 -0.0977 -7.20147 -38.22227 -6.69923 -4.85258 -3.21989 87.75507 7.12461 3.38626 -30.67674 -7.19403 2.25342 1.80802
1.50277 0.2864 -0.49372 41.92119 -61.98054 -12.04027 -13.50251 7.75204 6.82618 -30.41075 -5.97137 -0.83079 107.52027 -4.52555 -89.85474 5.33056 77.26989 6.72116 -5.15755 102.18121 10.18608 -31.41687 20.71543 -81.24861 -10.01182 5.12468 86.48577 -0.04978 -6.80288 -38.38372 -6.67605 -4.88181 -3.23299 87.50028 7.13244 3.70441 -30.5587 -7.20134 2.19784 1.77762
